<!DOCTYPE svg PUBLIC "-//W3C//DTD SVG 20010904//EN" "http://www.w3.org/TR/2001/REC-SVG-20010904/DTD/svg10.dtd">
<svg version="1.0" xmlns="http://www.w3.org/2000/svg" width="480px" height="236px" viewBox="0 0 4800 2360" preserveAspectRatio="xMidYMid meet">
<g id="layer1" fill="#000000" stroke="none">
 <path d="M591 2269 c-146 -32 -133 -25 -278 -156 -41 -37 -43 -41 -54 -125 -18 -144 -3 -202 82 -324 90 -129 214 -231 425 -349 172 -97 138 -91 436 -78 l156 6 149 125 c237 200 233 196 245 184 6 -6 19 -57 29 -114 l17 -103 -60 -113 c-38 -72 -57 -117 -51 -123 6 -6 90 -5 229 5 120 8 223 11 227 6 5 -4 7 -20 5 -36 -3 -32 -8 -33 -193 -51 l-80 -8 3 -81 2 -80 -32 -16 c-31 -14 -35 -13 -168 44 -74 32 -167 68 -206 80 l-72 20 -133 -31 c-124 -29 -141 -36 -229 -94 -52 -34 -135 -100 -183 -146 l-88 -85 -36 -115 -36 -116 19 -54 c17 -50 96 -171 112 -171 3 0 62 -7 129 -16 114 -14 131 -14 226 1 56 9 114 20 128 25 14 4 114 65 222 135 l195 126 48 110 c26 60 53 114 58 118 6 5 230 84 498 174 l486 166 879 -100 c483 -54 884 -97 891 -94 25 9 0 26 -156 104 -147 73 -182 86 -539 191 -211 63 -383 116 -383 119 0 4 187 91 416 196 228 104 420 195 426 202 7 9 6 14 -7 19 -9 4 -257 -61 -558 -146 -298 -84 -551 -152 -562 -152 -11 0 -297 84 -635 187 -338 102 -651 197 -695 210 l-80 25 -68 89 -69 90 -226 124 c-371 204 -347 194 -523 212 -188 19 -177 19 -338 -16z m557 -249 c98 -17 124 -25 191 -64 91 -54 155 -131 165 -201 9 -59 -17 -158 -57 -213 -66 -92 -147 -108 -392 -77 l-120 15 -102 108 c-88 93 -105 116 -127 177 -15 39 -26 77 -26 85 0 8 16 40 35 70 31 49 43 59 107 87 90 39 161 42 326 13z m430 -1205 c35 -27 74 -67 87 -90 21 -36 23 -45 13 -95 -15 -81 -58 -136 -122 -154 -28 -9 -118 -40 -200 -69 l-150 -54 -118 45 -118 45 0 45 c0 38 8 59 50 123 43 64 67 88 147 145 53 38 103 73 110 77 21 13 217 45 228 37 6 -4 38 -28 73 -55z"/>
 </g>
  
</svg>